<svg id="Layer_10_copy" data-name="Layer 10 copy" xmlns="http://www.w3.org/2000/svg" viewBox="0 0 599 599"><defs><style>.cls-1{fill:#4547ff;}.cls-2{fill:#fffffe;}</style></defs><title>b2b</title><circle class="cls-1" cx="299.5" cy="299.5" r="299.5"/><path class="cls-2" d="M484,242a25.67,25.67,0,0,0-5.25-15.8l-28.94-37a24.89,24.89,0,0,0-19.59-9.3,24.13,24.13,0,0,0-12.8,3.59L389.2,201c-3,1.89-8.06,3.19-13,3.16a23.51,23.51,0,0,1-9.94-2l-27.63-13.39a33.29,33.29,0,0,0-14.42-3c-7.18,0-14.44,1.8-20.28,5.84l-3.22,2.26-11-5.47a41.4,41.4,0,0,0-18-3.7,43.06,43.06,0,0,0-16.52,3l-18.82,8a38.59,38.59,0,0,1-25.54,0l-18.84-8a27.42,27.42,0,0,0-10.75-2.1A32.74,32.74,0,0,0,169,188.1a27.81,27.81,0,0,0-10.32,7.1l-34.3,38.41a22.27,22.27,0,0,0,2.17,31.84l32,27.3-15.18,15.83a22.61,22.61,0,0,0,.78,32l3.08,2.93a22.58,22.58,0,0,0,10,5.44,22.36,22.36,0,0,0,4.21,27.16h0l3.09,2.94a22.91,22.91,0,0,0,24.59,4.45,22.38,22.38,0,0,0,6.29,11l3.09,2.94a22.86,22.86,0,0,0,28.32,2.43,22.46,22.46,0,0,0,5.92,9.72l3.09,2.94a22.89,22.89,0,0,0,32.18-.76l13.41-14,18.23,16.87a22.87,22.87,0,0,0,32.16-1.16l2.91-3.12a22.45,22.45,0,0,0,5.1-9.22l7.06,6.52a22.91,22.91,0,0,0,32.18-1.19l2.89-3.11a22.37,22.37,0,0,0,5.8-12.51,22.28,22.28,0,0,0,22.34-6.41l2.9-3.11a22.55,22.55,0,0,0,6.06-15.42,23.12,23.12,0,0,0-.62-5.08,22.56,22.56,0,0,0,13.65-6.91l2.91-3.12a22.64,22.64,0,0,0-1.18-32l-5.44-5,49.11-54.3A25.85,25.85,0,0,0,484,242ZM163,337.41a10.33,10.33,0,0,1-7.13-2.82l-3.08-2.93a10.3,10.3,0,0,1-.36-14.56l31.09-32.44a10.43,10.43,0,0,1,14.63-.35l3.07,2.93s3.18,4.7,3.19,7.46a10.24,10.24,0,0,1-1.84,5.82L169,335.5A10.47,10.47,0,0,1,163,337.41Zm24.83,32.36a10.44,10.44,0,0,1-14.63.34l-3.09-2.93h0a10.33,10.33,0,0,1-.35-14.56s41.44-43.14,41.79-43.55a10.38,10.38,0,0,1,14.3-.07l3.09,2.94a10.31,10.31,0,0,1,.35,14.56Zm34,18.34a10.42,10.42,0,0,1-14.62.35l-3.1-2.93a10.23,10.23,0,0,1-.9-13.87L232,341.54a10.34,10.34,0,0,1,14,.14l3.1,2.94a10.31,10.31,0,0,1,.35,14.56Zm54.83-3.18-17.51,18.28a10.43,10.43,0,0,1-14.63.34l-3.09-2.93a10.31,10.31,0,0,1-.35-14.56l17.5-18.28a10.44,10.44,0,0,1,14.63-.34l3.1,2.93a10.31,10.31,0,0,1,.34,14.56Zm152.12-49.58a10.2,10.2,0,0,1-2.76,7l-2.9,3.11a10.43,10.43,0,0,1-14.62.53l-48.89-45.22-8.45,9.05,52.33,48.48a10.3,10.3,0,0,1,.54,14.56L401.08,376a10.43,10.43,0,0,1-14.61.54l-48.91-45.22-8.45,9.05,43.4,40.14a10.29,10.29,0,0,1,.42,14.41L370,398a10.44,10.44,0,0,1-14.63.54l-43.31-40h0l-8.43,9.07h0l.16.15,21.69,20a10.19,10.19,0,0,1,.19,14.1L322.8,405a10.41,10.41,0,0,1-14.6.53l-18.89-17.49a22.3,22.3,0,0,0-4.47-26.63l-3.1-2.94A22.75,22.75,0,0,0,266,352.27c-.44,0-.88.1-1.3.12,0-.1,0-.21,0-.32,0-6-7-16.41-7-16.41l-3.09-2.93a22.68,22.68,0,0,0-11.46-5.84A22.32,22.32,0,0,0,237.5,303l-3.09-2.94a22.8,22.8,0,0,0-15.7-6.24c-.66,0-1.3.13-2,.19a22.55,22.55,0,0,0-7-15.69h0l-3.08-2.93a22.88,22.88,0,0,0-32.18.76l-7.34,7.66-32.51-27.73a10,10,0,0,1-1-14.24L168,203.43a15.65,15.65,0,0,1,5.73-3.87,20.41,20.41,0,0,1,7.54-1.48,15,15,0,0,1,5.86,1.1l18.83,8a50.74,50.74,0,0,0,35.33,0l18.82-8a30.83,30.83,0,0,1,11.63-2c4.81,0,9.64,1,12.43,2.39l5,2.51L270,215.54A22.17,22.17,0,0,0,265,247h0l2.54,3.41a24.78,24.78,0,0,0,19.83,9.71,24.08,24.08,0,0,0,12.4-3.38l11.48-6.89a18.91,18.91,0,0,1,9.53-2.32c4.3,0,8.63,1.25,11.23,3.16l31.76,22.77a317.22,317.22,0,0,1,25,20.37l36.76,34A10.24,10.24,0,0,1,428.73,335.36Zm39.6-84.21-49,54.15-22.23-20.55A327.16,327.16,0,0,0,371,263.41l-31.75-22.77a32.09,32.09,0,0,0-18.49-5.49,31.26,31.26,0,0,0-16,4.1l-11.47,6.89a11.65,11.65,0,0,1-6,1.6,12.38,12.38,0,0,1-9.86-4.71l-2.53-3.4h0a9.84,9.84,0,0,1,2.25-14l33.94-23.85c2.93-2.12,8.16-3.61,13.12-3.58a21,21,0,0,1,9,1.79l27.63,13.39a35.7,35.7,0,0,0,15.38,3.2c6.87,0,13.82-1.53,19.55-5L424,194a11.73,11.73,0,0,1,6.22-1.71A12.52,12.52,0,0,1,440,196.8l28.94,37a13.47,13.47,0,0,1,2.64,8.21A13.73,13.73,0,0,1,468.33,251.15Z" transform="translate(-1 0)"/></svg>