<svg id="Layer_7" data-name="Layer 7" xmlns="http://www.w3.org/2000/svg" viewBox="0 0 599 599"><defs><style>.cls-1{fill:#7441ff;}.cls-2{fill:#fffffe;}</style></defs><title>gamesicon</title><circle class="cls-1" cx="299.5" cy="299.5" r="299.5"/><path class="cls-2" d="M415.53,365.85h-4.37V351c0-9.9-5.53-18.34-14.85-18.34H321.21V241.44a55,55,0,1,0-43.67-.73v91.95H203.31c-9.32,0-14.85,9-14.85,18.34v14.85H185a17.49,17.49,0,0,0-17.47,17.47v62A17.49,17.49,0,0,0,185,462.79H415.53A17.49,17.49,0,0,0,433,445.32v-62A17.49,17.49,0,0,0,415.53,365.85Z" transform="translate(-1 0)"/></svg>