<svg id="Layer_6" data-name="Layer 6" xmlns="http://www.w3.org/2000/svg" viewBox="0 0 599 599"><defs><style>.cls-1{fill:#fc4e4e;}.cls-2{fill:#fffffe;}</style></defs><title>musicicon</title><circle class="cls-1" cx="299.5" cy="299.5" r="299.5"/><path class="cls-2" d="M413.13,157.45c-30.08-30.08-69.89-46.89-112.35-46.89A159.14,159.14,0,0,0,141.55,269.8V364a13,13,0,0,0,13.27,13.27H184V350.75H168.09V269.8c0-73,59.71-132.7,132.7-132.7a132.9,132.9,0,0,1,132.7,132.7v80.95H418v26.54h28.75A13,13,0,0,0,460,364V269.8C460,227.34,443.21,187.53,413.13,157.45Z" transform="translate(-1 0)"/><path class="cls-2" d="M179.59,423.29a13.31,13.31,0,0,0,13.27,13.27l48.21.44h0a13.61,13.61,0,0,0,13.27-13.27v-115a13,13,0,0,0-13.27-13.27H192.86a13,13,0,0,0-13.27,13.27V423.29Z" transform="translate(-1 0)"/><path class="cls-2" d="M422.42,308.73a13,13,0,0,0-13.27-13.27H360.5a13,13,0,0,0-13.27,13.27V423.29a13,13,0,0,0,13.27,13.27h48.66a13,13,0,0,0,13.27-13.27V308.73Z" transform="translate(-1 0)"/></svg>