<svg id="Layer_9" data-name="Layer 9" xmlns="http://www.w3.org/2000/svg" viewBox="0 0 599 599"><defs><style>.cls-1{fill:#4547ff;}.cls-2{fill:#fffffe;}</style></defs><title>pay2enter</title><circle class="cls-1" cx="299.5" cy="299.5" r="299.5"/><path class="cls-2" d="M262.24,400A31.27,31.27,0,0,1,231,368.77V231.23A31.27,31.27,0,0,1,262.24,200h210.6a31.27,31.27,0,0,1,31.23,31.23V368.77A31.27,31.27,0,0,1,472.84,400ZM250.5,368.77a11.76,11.76,0,0,0,11.74,11.75h210.6a11.76,11.76,0,0,0,11.74-11.75V276.44H250.5Zm11.74-149.28a11.76,11.76,0,0,0-11.74,11.74v15H484.58v-15a11.76,11.76,0,0,0-11.74-11.74Z" transform="translate(-1 0)"/><path class="cls-1" d="M472.84,201a30.27,30.27,0,0,1,30.23,30.23V368.77A30.27,30.27,0,0,1,472.84,399H262.24A30.27,30.27,0,0,1,232,368.77V231.23A30.27,30.27,0,0,1,262.24,201h210.6M249.5,247.2H485.58v-16a12.76,12.76,0,0,0-12.74-12.74H262.24a12.76,12.76,0,0,0-12.74,12.74v16m12.74,134.31h210.6a12.76,12.76,0,0,0,12.74-12.74V275.44H249.5v93.33a12.76,12.76,0,0,0,12.74,12.74M472.84,199H262.24A32.27,32.27,0,0,0,230,231.23V368.77A32.27,32.27,0,0,0,262.24,401h210.6a32.27,32.27,0,0,0,32.23-32.23V231.23A32.27,32.27,0,0,0,472.84,199ZM251.5,245.2v-14a10.76,10.76,0,0,1,10.74-10.74h210.6a10.76,10.76,0,0,1,10.74,10.74v14Zm10.74,134.31a10.76,10.76,0,0,1-10.74-10.74V277.44H483.58v91.33a10.76,10.76,0,0,1-10.74,10.74Z" transform="translate(-1 0)"/><rect class="cls-2" x="263.93" y="289.26" width="121.41" height="20.47" rx="10.23" ry="10.23"/><rect class="cls-2" x="94.26" y="239.13" width="121.41" height="20.47" rx="10.23" ry="10.23"/><rect class="cls-2" x="119.9" y="294.42" width="95.78" height="20.47" rx="10.23" ry="10.23"/><rect class="cls-2" x="160.45" y="352.66" width="55.23" height="20.47" rx="10.23" ry="10.23"/><rect class="cls-2" x="119.9" y="352.66" width="27.96" height="20.47" rx="10.23" ry="10.23"/></svg>