<svg id="Layer_4" data-name="Layer 4" xmlns="http://www.w3.org/2000/svg" viewBox="0 0 512 434.32"><defs><style>.cls-1{fill:#4547ff;}</style></defs><title>players</title><path class="cls-1" d="M482.59,317.82H443a103,103,0,0,1,6.24,35.4V502.87a44.13,44.13,0,0,1-2.54,14.78h65.46a44.4,44.4,0,0,0,44.35-44.35V391.73A74,74,0,0,0,482.59,317.82Z" transform="translate(-44.5 -83.34)"/><path class="cls-1" d="M151.76,353.23a103,103,0,0,1,6.24-35.4h-39.6A74,74,0,0,0,44.5,391.73v81.58a44.4,44.4,0,0,0,44.35,44.35h65.46a44.14,44.14,0,0,1-2.54-14.78Z" transform="translate(-44.5 -83.34)"/><path class="cls-1" d="M345.76,279.32H255.24a74,74,0,0,0-73.91,73.91V502.88a14.78,14.78,0,0,0,14.78,14.78H404.89a14.78,14.78,0,0,0,14.78-14.78V353.23A74,74,0,0,0,345.76,279.32Z" transform="translate(-44.5 -83.34)"/><path class="cls-1" d="M300.5,83.34a88.87,88.87,0,1,0,88.89,88.89A89,89,0,0,0,300.5,83.34Z" transform="translate(-44.5 -83.34)"/><path class="cls-1" d="M144.42,166.19a66.44,66.44,0,1,0,66.48,66.47A66.55,66.55,0,0,0,144.42,166.19Z" transform="translate(-44.5 -83.34)"/><path class="cls-1" d="M456.58,166.19a66.48,66.48,0,1,0,66.48,66.47A66.55,66.55,0,0,0,456.58,166.19Z" transform="translate(-44.5 -83.34)"/></svg>