<svg id="Layer_10" data-name="Layer 10" xmlns="http://www.w3.org/2000/svg" viewBox="0 0 599 599"><defs><style>.cls-1{fill:#4547ff;}.cls-2,.cls-3{fill:#fffffe;stroke:#4547ff;stroke-miterlimit:10;}.cls-2{stroke-width:10px;}.cls-3{stroke-width:4px;}</style></defs><title>subscription</title><circle class="cls-1" cx="299.5" cy="299.5" r="299.5"/><path class="cls-2" d="M475,308.76A11.66,11.66,0,0,0,462,319c-9.58,80.29-78,140.84-159.06,140.84A160.22,160.22,0,0,1,148.55,342.55l13.95,7.66a11.66,11.66,0,0,0,11.23-20.44l-35.78-19.65a11.66,11.66,0,0,0-15.83,4.59l-19.68,35.74A11.66,11.66,0,0,0,107,366.29c5.82,2.72,12.48,1.38,15.84-4.59l4.56-8.28A183.58,183.58,0,0,0,303,483.12c92.9,0,171.24-69.39,182.22-161.4A11.66,11.66,0,0,0,475,308.76Z" transform="translate(-1 0)"/><path class="cls-2" d="M492,216.08a11.66,11.66,0,0,0-15.32,6.09L473,230.68A183.6,183.6,0,0,0,123.4,261.83a11.66,11.66,0,0,0,22.82,4.82A160.29,160.29,0,0,1,453,243.75l-14.76-6.35a11.66,11.66,0,1,0-9.22,21.42L466.58,275a11.38,11.38,0,0,0,15.32-6.09L498,231.4A11.66,11.66,0,0,0,492,216.08Z" transform="translate(-1 0)"/><path class="cls-3" d="M381.46,221.49H217.85a25.07,25.07,0,0,0-25,25V353.38a25.07,25.07,0,0,0,25,25H381.46a25.07,25.07,0,0,0,25-25V246.54A25.07,25.07,0,0,0,381.46,221.49Zm8.35,131.89a8.36,8.36,0,0,1-8.35,8.35H217.85a8.36,8.36,0,0,1-8.35-8.35v-71H389.8Zm0-96H209.5V246.54a8.36,8.36,0,0,1,8.35-8.35H381.46a8.36,8.36,0,0,1,8.35,8.35Z" transform="translate(-1 0)"/><rect class="cls-3" x="218.93" y="294.07" width="101" height="21.58" rx="10.08" ry="10.08"/></svg>