<svg id="Layer_1" data-name="Layer 1" xmlns="http://www.w3.org/2000/svg" xmlns:xlink="http://www.w3.org/1999/xlink" viewBox="0 0 256 256"><defs><style>.cls-1{fill:#02040a;}.cls-2{fill:url(#linear-gradient);}</style><linearGradient id="linear-gradient" x1="37.49" y1="39.49" x2="218.31" y2="220.31" gradientTransform="matrix(1, 0, 0, -1, 0, 258)" gradientUnits="userSpaceOnUse"><stop offset="0" stop-color="#00cd64"/><stop offset="1" stop-color="#00ff80"/></linearGradient></defs><title>glootboll</title><rect class="cls-1" x="1.38" y="1.38" width="253.24" height="253.24" rx="126.62"/><g id="Layer_2" data-name="Layer 2"><g id="Layer_1-2" data-name="Layer 1-2"><path class="cls-2" d="M231,51.93,212.59,70.28a102.34,102.34,0,1,1-40.89-34.9L151.87,55.21a76.73,76.73,0,1,0,52.93,73.08,73.6,73.6,0,0,0-1.08-12.58H142.34l-25.6,25.6h60.85a51.2,51.2,0,1,1-49.92-63.93H128a49.7,49.7,0,0,1,29,9l55-55A127.46,127.46,0,0,0,128,0h0A128,128,0,1,0,256,128h0A127.42,127.42,0,0,0,231,51.93Z" transform="translate(0 0)"/></g></g></svg>