<svg id="Layer_1" data-name="Layer 1" xmlns="http://www.w3.org/2000/svg" viewBox="0 0 134 134"><defs><style>.cls-1{fill:#00ff80;}</style></defs><title>G-Loot_Logo_Symbol_Green</title><path class="cls-1" d="M120.08,27.77l-9.47,9.47a52.7,52.7,0,1,1-21.07-18L79.31,29.47A39.55,39.55,0,1,0,106.6,67.15a38.31,38.31,0,0,0-.56-6.49H74.39l-13.2,13.2H92.57a26.42,26.42,0,0,1-52-6.79A26.21,26.21,0,0,1,67,40.9a25.52,25.52,0,0,1,14.93,4.66L110.3,17.19A65.76,65.76,0,0,0,67,1h0a66,66,0,1,0,66,66h0A65.71,65.71,0,0,0,120.08,27.77Z"/></svg>